<?xml version="1.0" encoding="iso-8859-1"?>
<!-- Uploaded to: SVG Repo, www.svgrepo.com, Generator: SVG Repo Mixer Tools -->
<svg height="800px" width="800px" version="1.1" id="Layer_1" xmlns="http://www.w3.org/2000/svg" xmlns:xlink="http://www.w3.org/1999/xlink" 
	 viewBox="0 0 504.189 504.189" xml:space="preserve">
<path style="fill:#F4EFEF;" d="M210,384.104c3.2-3.2,8-3.2,11.2,0l26.8,26.8l50-50c3.2-3.2,8-3.2,11.2,0s3.2,8,0,11.2l-55.6,55.6
	c-1.6,1.6-3.6,2.4-5.6,2.4s-4-0.8-5.6-2.4l-32.4-32.4C206.8,392.104,206.8,386.904,210,384.104z"/>
<path style="fill:#F0C960;" d="M14.8,176.104l17.6,183.2c1.2,17.2,16.4,32.8,34,32.8h56.8h22.4H446c17.2,0,32.8-15.6,34-32.8
	l17.6-183.2H14.8z"/>
<g>
	<path style="fill:#F4EFEF;" d="M102,208.904c-6.4,0-12,5.2-12,12v122.4c0,6.4,5.6,12,12,12s12-5.2,12-12v-122.4
		C114,214.104,108.4,208.904,102,208.904z"/>
	<path style="fill:#F4EFEF;" d="M176,208.904c-6.4,0-10,5.2-10,12v122.4c0,6.4,3.6,12,10,12s10-5.2,10-12v-122.4
		C186,214.104,182.4,208.904,176,208.904z"/>
	<path style="fill:#F4EFEF;" d="M250,208.904c-6.4,0-12,5.2-12,12v122.4c0,6.4,5.6,12,12,12s12-5.2,12-12v-122.4
		C262,214.104,256.4,208.904,250,208.904z"/>
	<path style="fill:#F4EFEF;" d="M326,208.904c-6.4,0-12,5.2-12,12v122.4c0,6.4,5.6,12,12,12s12-5.2,12-12v-122.4
		C338,214.104,332.4,208.904,326,208.904z"/>
	<path style="fill:#F4EFEF;" d="M402,208.904c-6.4,0-12,5.2-12,12v122.4c0,6.4,5.6,12,12,12s12-5.2,12-12v-122.4
		C414,214.104,408.4,208.904,402,208.904z"/>
</g>
<path style="fill:#E9B526;" d="M504,153.304c0-4.4-3.6-8-8-8H12c-4.4,0-8,3.6-8,8v16c0,4.4,3.6,8,8,8h484c4.4,0,8-3.6,8-8V153.304
	L504,153.304z"/>
<g>
	<path style="fill:#F0C960;" d="M232,7.704c-6-2-12.8,1.2-15.2,7.6l-42,126.4l-1.2,4c-2,6,1.2,12.8,7.6,15.2c1.2,0.4,2.4,0.8,4,0.8
		c4.8,0,9.6-3.2,11.2-8l2.8-8.8l40.4-122C241.6,16.504,238.4,10.104,232,7.704z"/>
	<path style="fill:#F0C960;" d="M338.4,145.704l-43.6-130.4c-2-6.4-8.8-9.6-15.2-7.6c-6,2-9.6,8.8-7.6,15.2l43.6,130.4
		c0.8,2.4,2.4,4.4,4.4,6s4.4,2,6.8,2c1.2,0,2.4-0.4,4-0.8c0,0,0.4,0,0.4-0.4C337.2,158.104,340.4,151.704,338.4,145.704z"/>
</g>
<circle style="fill:#54B265;" cx="256" cy="386.504" r="110.4"/>
<path d="M311.2,149.304H200.4c-2.4,0-4-1.6-4-4s1.6-4,4-4h110.8c2.4,0,4,1.6,4,4S313.6,149.304,311.2,149.304z"/>
<path d="M438,182.104H14.8c-7.2,0-14.8-11.2-14.8-16.8v-16c0-2,0.8-3.6,2-4.8c2.8-2.8,6.8-2.4,10.8-2.4c0.8,0,1.6,0,2,0H170
	c2.4,0,4,1.6,4,4s-1.6,4-4,4H14.8c-0.8,0-1.6,0-2.4,0c-1.2,0-3.2,0-4.4,0v15.2c0,2.4,4.8,8.8,6.8,8.8H438c2.4,0,4,1.6,4,4
	S440.4,182.104,438,182.104z"/>
<path d="M497.2,182.104H478c-2.4,0-4-1.6-4-4s1.6-4,4-4h18c0.4-1.6,0-4.4,0-6c0-1.2,0-2,0-2.8v-15.2H342c-2.4,0-4-1.6-4-4s1.6-4,4-4
	h155.2c0.8,0,1.2,0,1.6,0c0.8,0,2.8-0.4,4,1.2c1.6,1.6,1.2,3.2,1.2,4c0,0.4,0,1.2,0,2v16c0,0.8,0,1.6,0,2.4
	c0.4,4.4,0.4,9.6-2.4,12.4C500.4,181.304,498.8,182.104,497.2,182.104z"/>
<path d="M142,398.104H66.4c-20,0-36.4-20.8-38-39.2l-17.2-180c-0.4-2,1.6-4,3.6-4.4s4,1.6,4.4,3.6l17.2,180
	c1.2,14.8,14.4,31.6,30,31.6H142c2.4,0,4,1.6,4,4S144.4,398.104,142,398.104z"/>
<path d="M445.6,398.104H366c-2.4,0-4-1.6-4-4s1.6-4,4-4h79.6c14.8,0,28.4-14,29.6-29.6l17.2-184c0.4-2,2-3.6,4.4-3.6
	c2,0.4,4,2,3.6,4.4l-17.2,184C482,380.904,464.8,398.104,445.6,398.104z"/>
<path d="M184.8,165.304c-1.6,0-3.6-0.4-5.2-0.8c-4-1.2-7.2-4.4-9.2-8c-2-4-2-8-0.8-12l43.6-130.4c1.2-4,4.4-7.2,8-9.2s8-2,12-0.8
	s7.2,4.4,9.2,8c2,4,2,8,0.8,12l-43.6,130.4C197.6,160.904,191.6,165.304,184.8,165.304z M228.4,10.904c-1.2,0-2.4,0.4-3.6,0.8
	c-2,0.8-3.2,2.4-4,4.4l-43.6,130.4c-0.8,2-0.4,4,0.4,6s2.4,3.2,4.4,4c4,1.2,8.8-0.8,10-4.8l43.6-130.4c0.8-2,0.4-4-0.4-6
	c-0.8-2-2.4-3.2-4.4-4C230,11.304,229.2,10.904,228.4,10.904z"/>
<path d="M327.2,165.304c-6.8,0-12.8-4.4-15.2-10.8l-43.6-130.4c-1.2-4-1.2-8.4,0.8-12s5.2-6.8,9.2-8s8.4-1.2,12,0.8
	c4,2,6.8,5.2,8,9.2l43.6,130c1.2,4,1.2,8.4-0.8,12c-2,4-5.2,6.8-9.2,8C330.4,164.904,328.8,165.304,327.2,165.304z M283.6,10.904
	c-0.8,0-1.6,0-2.4,0.4c-2,0.8-3.6,2-4.4,4c-0.8,2-1.2,4-0.4,6l43.6,130.4c1.2,4,6,6.4,10,4.8c2-0.8,3.6-2,4.4-4c0.8-2,1.2-4,0.4-6
	l-43.6-130.4c-0.8-2-2-3.6-4-4.4C286,11.304,284.8,10.904,283.6,10.904z"/>
<path d="M260,280.104c-2.4,0-4-1.6-4-4v-55.6c0-4.4-3.6-8-8-8s-8,3.6-8,8v55.6c0,2.4-1.6,4-4,4s-4-1.6-4-4v-55.6c0-8.8,7.2-16,16-16
	s16,7.2,16,16v55.6C264,278.504,262.4,280.104,260,280.104z"/>
<path d="M164,320.104c-2.4,0-4-1.6-4-4v-95.6c0-9.2,6.4-16,15.2-16c8.4,0,17.2,5.6,17.2,14.4v73.2c0,2.4-1.6,4-4,4s-4-1.6-4-4v-72.8
	c0-4-4.4-6.4-9.2-6.4s-7.2,4-7.2,8v95.2C168,318.504,166.4,320.104,164,320.104z"/>
<path d="M100,358.904c-8.8,0-16-7.2-16-16v-122.4c0-8.8,7.2-16,16-16s16,7.2,16,16v122.4C116,351.704,108.8,358.904,100,358.904z
	 M100,212.504c-4.4,0-8,3.6-8,8v122.4c0,4.4,3.6,8,8,8s8-3.6,8-8v-122.4C108,216.104,104.4,212.504,100,212.504z"/>
<path d="M400,358.904c-8.8,0-16-7.2-16-16v-122.4c0-8.8,7.2-16,16-16s16,7.2,16,16v122.4C416,351.704,408.8,358.904,400,358.904z
	 M400,212.504c-4.4,0-8,3.6-8,8v122.4c0,4.4,3.6,8,8,8s8-3.6,8-8v-122.4C408,216.104,404.4,212.504,400,212.504z"/>
<path d="M336,312.104c-2.4,0-4-1.6-4-4v-87.6c0-4.4-3.6-8-8-8s-8,3.6-8,8v71.6c0,2.4-1.6,4-4,4s-4-1.6-4-4v-71.6c0-8.8,7.2-16,16-16
	s16,7.2,16,16v87.6C340,310.504,338.4,312.104,336,312.104z"/>
<path d="M256,500.904c-63.2,0-114.4-51.2-114.4-114.4s51.2-114.4,114.4-114.4s114.4,51.2,114.4,114.4S319.2,500.904,256,500.904z
	 M256,280.104c-58.8,0-106.4,47.6-106.4,106.4s47.6,106.4,106.4,106.4c58.8,0,106.4-47.6,106.4-106.4S314.8,280.104,256,280.104z"/>
<path d="M247.6,425.704c-1.2,0-2-0.4-2.8-1.2l-33.2-33.2c-1.6-1.6-1.6-4,0-5.6s4-1.6,5.6,0l33.2,33.2c1.6,1.6,1.6,4,0,5.6
	C249.6,425.304,248.4,425.704,247.6,425.704z"/>
<path d="M247.6,425.704c-1.2,0-2-0.4-2.8-1.2c-1.6-1.6-1.6-4,0-5.6l56.4-56.4c1.6-1.6,4-1.6,5.6,0s1.6,4,0,5.6l-56.4,56.4
	C249.6,425.304,248.4,425.704,247.6,425.704z"/>
</svg>